<?xml version="1.0" encoding="utf-8"?>
<!-- Generator: Adobe Illustrator 24.1.0, SVG Export Plug-In . SVG Version: 6.00 Build 0)  -->
<svg version="1.1" id="Layer_1" xmlns="http://www.w3.org/2000/svg" xmlns:xlink="http://www.w3.org/1999/xlink" x="0px" y="0px"
	 viewBox="0 0 600 600" style="enable-background:new 0 0 600 600;" xml:space="preserve">
<style type="text/css">
	.st0{fill:#23941B;}
	.st1{fill:#FFFFFF;}
	.st2{fill:#3F5B65;}
</style>
<path class="st0" d="M52.18,599.49h494.6c28.98,0,52.7-23.71,52.7-52.7V52.18c0-28.98-23.71-52.7-52.7-52.7H52.18
	c-28.98,0-52.7,23.71-52.7,52.7v494.6C-0.51,575.77,23.2,599.49,52.18,599.49z"/>
<path class="st1" d="M559.61,32.26c6.61,8.33,10.58,18.85,10.58,30.25v458.31c0,26.86-21.97,48.83-48.83,48.83H63.05
	c-11.4,0-21.91-3.97-30.25-10.58c8.96,11.3,22.79,18.58,38.25,18.58h458.31c26.86,0,48.83-21.97,48.83-48.83V70.51
	C578.19,55.05,570.9,41.22,559.61,32.26z"/>
<g>
	<path class="st1" d="M411.88,510.35h-224.8c-20.9,0-38-17.1-38-38V305.74c0-20.9,17.1-38,38-38h224.8c20.9,0,38,17.1,38,38v166.62
		C449.88,493.25,432.78,510.35,411.88,510.35z"/>
	<path class="st2" d="M187.09,267.74h51.52v-67.62c0-32.62,26.54-59.16,59.16-59.16h3.42c32.62,0,59.16,26.54,59.16,59.16v67.62
		h51.52c0.27,0,0.53,0.04,0.8,0.04v-67.67c0-61.48-50.01-111.49-111.49-111.49h-3.42c-61.48,0-111.49,50.01-111.49,111.49v67.67
		C186.55,267.77,186.82,267.74,187.09,267.74z"/>
	<path class="st2" d="M342.99,362.95c0-24.03-19.48-43.5-43.5-43.5s-43.5,19.48-43.5,43.5c0,16.98,9.74,31.68,23.93,38.85l-6.29,46
		c-0.78,5.74,3.67,10.84,9.46,10.84h32.8c5.79,0,10.25-5.11,9.46-10.84l-6.29-46C333.25,394.63,342.99,379.93,342.99,362.95z"/>
</g>
</svg>
